<svg width="512" height="512" viewBox="0 0 512 512" fill="none" xmlns="http://www.w3.org/2000/svg">
  <!-- Background circle with gradient -->
  <defs>
    <linearGradient id="grad1" x1="0%" y1="0%" x2="100%" y2="100%">
      <stop offset="0%" style="stop-color:#0ea5e9;stop-opacity:1" />
      <stop offset="100%" style="stop-color:#3b82f6;stop-opacity:1" />
    </linearGradient>
  </defs>
  
  <!-- Background -->
  <circle cx="256" cy="256" r="256" fill="url(#grad1)"/>
  
  <!-- AI Icon -->
  <g transform="translate(256,256)">
    <!-- Brain/Circuit pattern -->
    <circle cx="0" cy="-60" r="24" fill="white" opacity="0.9"/>
    <circle cx="-48" cy="0" r="18" fill="white" opacity="0.8"/>
    <circle cx="48" cy="0" r="18" fill="white" opacity="0.8"/>
    <circle cx="0" cy="60" r="24" fill="white" opacity="0.9"/>
    
    <!-- Additional nodes -->
    <circle cx="-32" cy="-32" r="12" fill="white" opacity="0.7"/>
    <circle cx="32" cy="-32" r="12" fill="white" opacity="0.7"/>
    <circle cx="-32" cy="32" r="12" fill="white" opacity="0.7"/>
    <circle cx="32" cy="32" r="12" fill="white" opacity="0.7"/>
    
    <!-- Connecting lines -->
    <line x1="0" y1="-36" x2="-36" y2="-12" stroke="white" stroke-width="4" opacity="0.7"/>
    <line x1="0" y1="-36" x2="36" y2="-12" stroke="white" stroke-width="4" opacity="0.7"/>
    <line x1="-30" y1="0" x2="30" y2="0" stroke="white" stroke-width="4" opacity="0.7"/>
    <line x1="-36" y1="12" x2="0" y2="36" stroke="white" stroke-width="4" opacity="0.7"/>
    <line x1="36" y1="12" x2="0" y2="36" stroke="white" stroke-width="4" opacity="0.7"/>
    
    <!-- Cross connections -->
    <line x1="-32" y1="-32" x2="32" y2="32" stroke="white" stroke-width="3" opacity="0.5"/>
    <line x1="32" y1="-32" x2="-32" y2="32" stroke="white" stroke-width="3" opacity="0.5"/>
    
    <!-- Center AI text -->
    <text x="0" y="15" text-anchor="middle" fill="white" font-family="system-ui, -apple-system, sans-serif" font-size="48" font-weight="bold">AI</text>
  </g>
</svg>